<?xml version="1.0" encoding="UTF-8"?>
<svg xmlns="http://www.w3.org/2000/svg" width="40" height="40" viewBox="0 0 40 40">
  <g id="Groupe_1486" data-name="Groupe 1486" transform="translate(-420 -2116)">
    <g id="Groupe_1480" data-name="Groupe 1480">
      <g id="Groupe_1459" data-name="Groupe 1459" transform="translate(420 2120.53)">
        <path id="Tracé_644" data-name="Tracé 644" d="M126.889,2230.613a15.752,15.752,0,1,0,4.612,11.136A15.647,15.647,0,0,0,126.889,2230.613Zm-11.137,25.229a14.092,14.092,0,1,1,14.092-14.092A14.106,14.106,0,0,1,115.752,2255.842Z" transform="translate(-100.002 -2226.001)" fill="#223654"></path>
        <path id="Tracé_645" data-name="Tracé 645" d="M121.857,2232.415a.829.829,0,0,0-1.132-.3l-8.157,4.709-6.358-4.45a.828.828,0,1,0-.95,1.357l6.791,4.755,0,0a.441.441,0,0,0,.043.026l.012.007a.256.256,0,0,0,.045.023l.01,0,.051.024.032.011.023.008.033.009.022.006.033.008.023,0,.031.006.03,0,.027,0h.058a.876.876,0,0,0,.095,0h0c.03,0,.061-.01.091-.016l.007,0a.594.594,0,0,0,.085-.027l.012,0a.605.605,0,0,0,.078-.035l.015-.008.028-.014,8.614-4.973a.831.831,0,0,0,.3-1.133Z" transform="translate(-96.775 -2222.054)" fill="#223654"></path>
      </g>
    </g>
  </g>
</svg>
