<?xml version="1.0" encoding="UTF-8"?>
<svg xmlns="http://www.w3.org/2000/svg" width="40" height="40" viewBox="0 0 40 40">
  <g id="Groupe_1494" data-name="Groupe 1494" transform="translate(-420 -2392)">
    <g id="Groupe_1483" data-name="Groupe 1483">
      <g id="Groupe_1462" data-name="Groupe 1462" transform="translate(420 2403.832)">
        <path id="Tracé_642" data-name="Tracé 642" d="M449.015,511H422.489A2.477,2.477,0,0,0,420,513.462v14.766a2.477,2.477,0,0,0,2.487,2.461h26.526a2.477,2.477,0,0,0,2.487-2.461V513.462A2.477,2.477,0,0,0,449.015,511Zm0,1.641a.844.844,0,0,1,.144.013l-12.487,8.238a1.9,1.9,0,0,1-1.839,0l-12.487-8.238a.83.83,0,0,1,.144-.013h26.524Zm0,16.406H422.489a.825.825,0,0,1-.829-.82V514.174l12.253,8.083a3.568,3.568,0,0,0,3.677,0l12.253-8.083v14.054A.825.825,0,0,1,449.015,529.048Z" transform="translate(-420.002 -511.001)" fill="#223654"></path>
      </g>
    </g>
  </g>
</svg>
