<?xml version="1.0" encoding="UTF-8"?>
<svg xmlns="http://www.w3.org/2000/svg" width="40" height="40" viewBox="0 0 40 40">
  <g id="Groupe_1478" data-name="Groupe 1478" transform="translate(-420 -2026)">
    <g id="Groupe_1458" data-name="Groupe 1458" transform="translate(420 2030)">
      <path id="Tracé_643" data-name="Tracé 643" d="M489.139,1187.532H485.2v-.766a.788.788,0,0,0-1.575,0v.766h-15.75v-.766a.788.788,0,0,0-1.575,0v.766h-3.937a2.333,2.333,0,0,0-2.362,2.3v21.438a2.333,2.333,0,0,0,2.362,2.3h26.774a2.333,2.333,0,0,0,2.362-2.3v-21.437A2.333,2.333,0,0,0,489.139,1187.532Zm-26.774,1.531H466.3v2.3a.788.788,0,0,0,1.575,0v-2.3h15.75v2.3a.788.788,0,0,0,1.575,0v-2.3h3.938a.777.777,0,0,1,.787.765v3.828H461.577v-3.828A.777.777,0,0,1,462.365,1189.064Zm26.774,22.968H462.365a.777.777,0,0,1-.788-.766v-16.078h28.349v16.078A.777.777,0,0,1,489.139,1212.032Z" transform="translate(-460.002 -1186.001)" fill="#223654"></path>
    </g>
  </g>
</svg>
