<?xml version="1.0" encoding="UTF-8"?>
<svg xmlns="http://www.w3.org/2000/svg" width="40" height="40" viewBox="0 0 40 40">
  <g id="Groupe_1492" data-name="Groupe 1492" transform="translate(-420 -2211)">
    <g id="Groupe_1485" data-name="Groupe 1485">
      <g id="Groupe_1460" data-name="Groupe 1460" transform="translate(420 2215.402)">
        <path id="Tracé_639" data-name="Tracé 639" d="M525.212,1136.5a19.573,19.573,0,0,1-8.826-2.349,33.5,33.5,0,0,1-14.022-14.028,19.58,19.58,0,0,1-2.348-8.821c0-1.808,1.686-3.555,2.41-4.221,1.042-.959,2.681-2.079,3.872-2.079a3.592,3.592,0,0,1,2.186,1.219,20.823,20.823,0,0,1,2.178,2.432c.457.586,2.728,3.576,2.728,5.011,0,1.177-1.332,2-2.741,2.86a15.677,15.677,0,0,0-1.515,1.006c-.435.348-.512.532-.525.573a20.837,20.837,0,0,0,9.8,9.788c.033-.011.217-.083.572-.524a15.813,15.813,0,0,0,1.007-1.514c.867-1.408,1.685-2.738,2.862-2.738,1.436,0,4.427,2.269,5.015,2.725a20.87,20.87,0,0,1,2.434,2.178,3.583,3.583,0,0,1,1.22,2.184c0,1.191-1.121,2.833-2.079,3.879-.668.727-2.416,2.42-4.226,2.42Zm-18.922-29.923a5.914,5.914,0,0,0-2.794,1.662,5.084,5.084,0,0,0-1.9,3.063c0,10.6,13.025,23.623,23.619,23.623a5.091,5.091,0,0,0,3.064-1.91,5.946,5.946,0,0,0,1.664-2.8c-.05-.3-.879-1.463-3.147-3.208a12.322,12.322,0,0,0-3.937-2.314c-.028.008-.2.076-.563.529a17.032,17.032,0,0,0-.966,1.458c-.883,1.434-1.716,2.791-2.928,2.791a1.532,1.532,0,0,1-.572-.112,22.328,22.328,0,0,1-10.684-10.676c-.2-.5-.23-1.274.747-2.159a13.651,13.651,0,0,1,1.935-1.34,16.027,16.027,0,0,0,1.459-.966c.454-.357.522-.534.53-.562a12.342,12.342,0,0,0-2.315-3.934c-1.746-2.266-2.911-3.093-3.211-3.145Z" transform="translate(-500.015 -1105.001)" fill="#223654"></path>
      </g>
    </g>
  </g>
</svg>
