<?xml version="1.0" encoding="UTF-8"?>
<svg xmlns="http://www.w3.org/2000/svg" width="40" height="40" viewBox="0 0 40 40">
  <g id="Groupe_1482" data-name="Groupe 1482" transform="translate(-420 -2482)">
    <g id="Groupe_1463" data-name="Groupe 1463" transform="translate(420 2486.462)">
      <path id="Tracé_652" data-name="Tracé 652" d="M250.971,1232.921a.8.8,0,0,0-1.013.48,3.976,3.976,0,0,1-3.746,2.626c-2.168,0-3.644-2.046-3.982-4.066a9.321,9.321,0,0,0-2.251-4.716,6.515,6.515,0,0,0-4.886-2.243,7.136,7.136,0,0,0-7.107,6.333,8.7,8.7,0,0,0-7.984,8.629v7.875a8.737,8.737,0,0,0,17.473,0v-7.875a8.7,8.7,0,0,0-7.892-8.621,5.554,5.554,0,0,1,5.509-4.766c3.039,0,5.1,2.838,5.571,5.642a7.18,7.18,0,0,0,1.739,3.649,5.082,5.082,0,0,0,3.809,1.734,5.569,5.569,0,0,0,5.244-3.674.785.785,0,0,0-.484-1Zm-23.027,0v6.256h-6.309A7.129,7.129,0,0,1,227.944,1232.919Zm.794,22.005a7.126,7.126,0,0,1-7.148-7.087v-7.087h14.3v7.087A7.127,7.127,0,0,1,228.739,1254.925Zm7.1-15.749h-6.31v-6.256A7.129,7.129,0,0,1,235.842,1239.175Z" transform="translate(-220.002 -1225.002)" fill="#223654"></path>
    </g>
  </g>
</svg>
