<?xml version="1.0" encoding="UTF-8"?>
<svg xmlns="http://www.w3.org/2000/svg" width="40" height="40" viewBox="0 0 40 40">
  <g id="Groupe_1493" data-name="Groupe 1493" transform="translate(-420 -2305)">
    <g id="Groupe_1487" data-name="Groupe 1487">
      <g id="Groupe_1484" data-name="Groupe 1484">
        <g id="Groupe_1481" data-name="Groupe 1481">
          <g id="Groupe_1461" data-name="Groupe 1461" transform="translate(420 2309.5)">
            <path id="Tracé_640" data-name="Tracé 640" d="M33.845,1216.5a.832.832,0,0,1-.645-.3,51.764,51.764,0,0,1-4.589-6.906,42.7,42.7,0,0,1-3.158-6.955,24.582,24.582,0,0,1-1.45-7.888,9.665,9.665,0,0,1,9.844-9.45,9.665,9.665,0,0,1,9.844,9.45,24.635,24.635,0,0,1-1.45,7.888,42.7,42.7,0,0,1-3.158,6.955,51.95,51.95,0,0,1-4.589,6.906.832.832,0,0,1-.645.3Zm0-29.924a8.053,8.053,0,0,0-8.2,7.875c0,5.125,2.4,10.5,4.415,14.1a53.9,53.9,0,0,0,3.788,5.843,53.91,53.91,0,0,0,3.8-5.868c2.006-3.6,4.4-8.957,4.4-14.073A8.053,8.053,0,0,0,33.845,1186.576Z" transform="translate(-24.003 -1185.001)" fill="#223654"></path>
            <path id="Tracé_641" data-name="Tracé 641" d="M31.136,1197.451c-2.279,0-4.134-2.12-4.134-4.725S28.857,1188,31.136,1188s4.134,2.12,4.134,4.725S33.416,1197.451,31.136,1197.451Zm0-7.875a3.178,3.178,0,0,0,0,6.3,3.178,3.178,0,0,0,0-6.3Z" transform="translate(-21.295 -1182.813)" fill="#223654"></path>
          </g>
        </g>
      </g>
    </g>
  </g>
</svg>
