<svg xmlns="http://www.w3.org/2000/svg" width="16" height="24" viewBox="0 -3 16 16">
  <g id="Icône" transform="translate(0)">
    <path id="Tracé_642" data-name="Tracé 642" d="M434.739,511H421.265a1.258,1.258,0,0,0-1.263,1.25v7.5a1.258,1.258,0,0,0,1.263,1.25h13.474a1.258,1.258,0,0,0,1.263-1.25v-7.5A1.258,1.258,0,0,0,434.739,511Zm0,.833a.429.429,0,0,1,.073.007l-6.343,4.184a.964.964,0,0,1-.934,0l-6.343-4.184a.422.422,0,0,1,.073-.007h13.473Zm0,8.333H421.265a.419.419,0,0,1-.421-.417v-7.138l6.224,4.106a1.812,1.812,0,0,0,1.868,0l6.224-4.106v7.138A.419.419,0,0,1,434.739,520.168Z" transform="translate(-420.002 -511.001)" fill="#223654"/>
  </g>
</svg>
