<svg xmlns="http://www.w3.org/2000/svg" width="27.131" height="27.131" viewBox="0 0 27.131 27.131"><defs><style>.a{fill:#fff;}.b{fill:#19406C;}</style></defs><g transform="translate(0)"><path class="a" d="M27.131,13.566a13.566,13.566,0,1,0-15.685,13.4v-9.48H8V13.566h3.444V10.577c0-3.4,2.025-5.278,5.124-5.278a20.861,20.861,0,0,1,3.037.265V8.9H17.9a1.961,1.961,0,0,0-2.211,2.119v2.545h3.762l-.6,3.921H15.685v9.48A13.569,13.569,0,0,0,27.131,13.566Z"/><path class="b" d="M312.819,212.159l.6-3.912h-3.754v-2.539a1.956,1.956,0,0,1,2.206-2.114h1.707v-3.331a20.812,20.812,0,0,0-3.03-.264c-3.091,0-5.112,1.874-5.112,5.266v2.982H302v3.912h3.436v9.457a13.675,13.675,0,0,0,4.229,0v-9.457Z" transform="translate(-293.984 -194.65)"/></g></svg>