<?xml version="1.0" encoding="UTF-8"?>
<svg xmlns="http://www.w3.org/2000/svg" width="29.13" height="29.13" viewBox="0 0 29.13 29.13">
  <path id="linkedin-round-svgrepo-com" d="M-128.435,145A14.564,14.564,0,0,0-143,159.565a14.564,14.564,0,0,0,14.565,14.565,14.564,14.564,0,0,0,14.565-14.565A14.564,14.564,0,0,0-128.435,145Zm-4.074,20.658h-2.839v-9.086h2.839Zm-1.5-10.224h-.023a1.576,1.576,0,0,1-1.7-1.576,1.592,1.592,0,0,1,1.735-1.576,1.585,1.585,0,0,1,1.713,1.576A1.584,1.584,0,0,1-134.005,155.434Zm12.852,10.224h-3.22v-4.7c0-1.229-.5-2.071-1.61-2.071A1.623,1.623,0,0,0-127.519,160a2.147,2.147,0,0,0-.068.745v4.91h-3.192s.04-8.329,0-9.086h3.192V158a2.9,2.9,0,0,1,2.833-1.513c2.02,0,3.6,1.309,3.6,4.119Z" transform="translate(143 -145)" fill="#fff"></path>
</svg>
