<svg id="Icône" xmlns="http://www.w3.org/2000/svg" width="16" height="24" viewBox="0 0 16 24">
  <rect id="Support_à_icône" data-name="Support à icône" width="16" height="24" fill="none"/>
  <path id="icone-pointeur" d="M4.672,15.849A26.392,26.392,0,0,1,2.34,12.338a21.77,21.77,0,0,1-1.6-3.53A12.524,12.524,0,0,1,0,4.8,4.908,4.908,0,0,1,5,0a4.908,4.908,0,0,1,5,4.8,12.538,12.538,0,0,1-.736,4.007,21.749,21.749,0,0,1-1.6,3.53,26.392,26.392,0,0,1-2.332,3.511.431.431,0,0,1-.656,0ZM.833,4.8a15.765,15.765,0,0,0,2.24,7.161A27.7,27.7,0,0,0,5,14.93a27.411,27.411,0,0,0,1.929-2.982A15.7,15.7,0,0,0,9.167,4.8,4.091,4.091,0,0,0,5,.8,4.091,4.091,0,0,0,.833,4.8ZM2.9,5.035A2.269,2.269,0,0,1,5,2.635a2.269,2.269,0,0,1,2.1,2.4A2.266,2.266,0,0,1,5,7.435,2.266,2.266,0,0,1,2.9,5.035Zm.7,0A1.511,1.511,0,0,0,5,6.636a1.511,1.511,0,0,0,1.4-1.6A1.511,1.511,0,0,0,5,3.437,1.511,1.511,0,0,0,3.6,5.035Z" transform="translate(3 4)" fill="#223654" stroke="rgba(0,0,0,0)" stroke-miterlimit="10" stroke-width="1"/>
</svg>
