<svg id="Icône" xmlns="http://www.w3.org/2000/svg" width="16" height="24" viewBox="0 0 16 16">
  <rect id="Support_à_icône" data-name="Support à icône" width="16" height="16" transform="translate(0)" fill="none"/>
  <path id="icone-telephone" d="M512.814,1121a9.942,9.942,0,0,1-4.483-1.193,17.015,17.015,0,0,1-7.123-7.125,9.945,9.945,0,0,1-1.193-4.481,3.433,3.433,0,0,1,1.224-2.144,3.649,3.649,0,0,1,1.967-1.056,1.824,1.824,0,0,1,1.11.619,10.585,10.585,0,0,1,1.106,1.235,6.873,6.873,0,0,1,1.386,2.545c0,.6-.677,1.014-1.392,1.453a7.948,7.948,0,0,0-.769.511c-.221.177-.26.27-.267.291a10.584,10.584,0,0,0,4.976,4.972c.017-.006.11-.042.291-.266a8.036,8.036,0,0,0,.512-.769c.44-.715.856-1.391,1.454-1.391a6.9,6.9,0,0,1,2.547,1.384,10.6,10.6,0,0,1,1.236,1.106,1.82,1.82,0,0,1,.62,1.11,3.669,3.669,0,0,1-1.056,1.97,3.435,3.435,0,0,1-2.146,1.229Zm-9.612-15.2a3,3,0,0,0-1.419.844,2.582,2.582,0,0,0-.966,1.556c0,5.383,6.616,12,12,12a2.586,2.586,0,0,0,1.556-.97,3.02,3.02,0,0,0,.845-1.425c-.026-.152-.447-.743-1.6-1.629a6.26,6.26,0,0,0-2-1.175c-.014,0-.1.038-.286.269a8.626,8.626,0,0,0-.491.741c-.448.729-.872,1.418-1.487,1.418a.777.777,0,0,1-.291-.057,11.341,11.341,0,0,1-5.427-5.423c-.1-.252-.117-.647.379-1.1a6.933,6.933,0,0,1,.983-.681,8.124,8.124,0,0,0,.741-.49c.231-.182.265-.271.269-.285a6.27,6.27,0,0,0-1.176-2c-.887-1.151-1.479-1.571-1.631-1.6Z" transform="translate(-500.015 -1105.001)" fill="#223654"/>
</svg>
