<svg xmlns="http://www.w3.org/2000/svg" width="33.484" height="23.589" viewBox="0 0 33.484 23.589"><defs><style>.a{fill:#fff;}</style></defs><path class="a" d="M47.892,95.418a4.215,4.215,0,0,0-2.959-2.981c-2.613-.7-13.083-.7-13.083-.7s-10.469,0-13.08.7a4.215,4.215,0,0,0-2.962,2.981,47.306,47.306,0,0,0,0,16.221,4.215,4.215,0,0,0,2.962,2.981c2.61.7,13.08.7,13.08.7s10.469,0,13.083-.7a4.215,4.215,0,0,0,2.959-2.981,47.307,47.307,0,0,0,0-16.221ZM28.426,108.507V98.55l8.751,4.98Z" transform="translate(-15.109 -91.734)"/></svg>