<?xml version="1.0" standalone="no"?>
<!DOCTYPE svg PUBLIC "-//W3C//DTD SVG 20010904//EN"
 "http://www.w3.org/TR/2001/REC-SVG-20010904/DTD/svg10.dtd">
<svg version="1.0" xmlns="http://www.w3.org/2000/svg"
 width="500.000000pt" height="500.000000pt" viewBox="0 0 500.000000 500.000000"
 preserveAspectRatio="xMidYMid meet">
<metadata>
Created by potrace 1.11, written by Peter Selinger 2001-2013
</metadata>
<g transform="translate(0.000000,500.000000) scale(0.100000,-0.100000)"
fill="#000000" stroke="none">
<path d="M2292 4959 c-458 -62 -851 -318 -1125 -734 -117 -177 -231 -451 -271
-646 -41 -199 -46 -610 -11 -818 76 -451 293 -1007 582 -1487 282 -468 894
-1219 1019 -1250 34 -9 102 42 235 175 604 607 1238 1755 1383 2506 48 246 47
641 0 875 -43 212 -173 510 -302 695 -253 361 -574 579 -981 666 -112 24 -411
34 -529 18z m345 -440 c454 -62 841 -366 1025 -806 142 -339 156 -761 37
-1116 -115 -346 -361 -637 -664 -786 -493 -243 -1044 -139 -1428 269 -192 204
-332 487 -373 750 -19 125 -19 425 0 550 29 190 117 404 240 585 73 108 223
262 326 334 253 178 558 258 837 220z"/>
<path d="M2195 3557 c-179 -60 -265 -197 -265 -424 0 -210 62 -330 205 -397
83 -40 155 -44 260 -16 72 19 90 21 129 11 83 -21 77 -37 74 207 l-3 217 -94
3 c-52 1 -100 1 -106 -2 -8 -3 -8 -31 0 -111 13 -126 18 -120 -97 -120 -92 0
-121 16 -157 89 -80 161 40 388 176 331 19 -8 52 -29 74 -46 22 -17 46 -29 54
-26 21 9 85 108 85 133 0 28 -88 110 -144 134 -57 26 -141 33 -191 17z"/>
<path d="M2923 3552 c-151 -54 -247 -196 -260 -387 -10 -151 43 -292 147 -388
65 -60 109 -77 202 -77 150 0 267 89 329 250 27 69 36 212 19 293 -16 80 -73
188 -121 232 -91 82 -216 113 -316 77z m176 -233 c55 -39 80 -95 81 -175 0
-77 -21 -139 -63 -182 -124 -128 -297 17 -259 219 28 150 138 213 241 138z"/>
<path d="M1636 3173 c-3 -208 -8 -395 -12 -415 l-6 -38 104 0 105 0 7 61 c3
34 6 221 6 415 l0 354 -99 0 -99 0 -6 -377z"/>
</g>
</svg>
