<?xml version="1.0" encoding="UTF-8" standalone="no"?>
<!-- Created with Inkscape (http://www.inkscape.org/) -->

<svg
   xmlns:osb="http://www.openswatchbook.org/uri/2009/osb"
   xmlns:dc="http://purl.org/dc/elements/1.1/"
   xmlns:cc="http://creativecommons.org/ns#"
   xmlns:rdf="http://www.w3.org/1999/02/22-rdf-syntax-ns#"
   xmlns:svg="http://www.w3.org/2000/svg"
   xmlns="http://www.w3.org/2000/svg"
   xmlns:sodipodi="http://sodipodi.sourceforge.net/DTD/sodipodi-0.dtd"
   xmlns:inkscape="http://www.inkscape.org/namespaces/inkscape"
   width="725.61426"
   height="725.61426"
   viewBox="0 0 725.61426 725.61426"
   id="svg2"
   version="1.1"
   inkscape:version="0.92.4 (5da689c313, 2019-01-14)"
   sodipodi:docname="2a-logo_bleu_sans_centre_carre.svg"
   inkscape:export-filename="C:\Users\pelord\Downloads\logo_IGO\512.png"
   inkscape:export-xdpi="67.738472"
   inkscape:export-ydpi="67.738472">
  <defs
     id="defs4">
    <linearGradient
       id="linearGradient4493"
       osb:paint="gradient">
      <stop
         style="stop-color:#ff0000;stop-opacity:1;"
         offset="0"
         id="stop4495" />
      <stop
         style="stop-color:#ff0000;stop-opacity:0;"
         offset="1"
         id="stop4497" />
    </linearGradient>
  </defs>
  <sodipodi:namedview
     id="base"
     pagecolor="#ffffff"
     bordercolor="#666666"
     borderopacity="1.0"
     inkscape:pageopacity="0.0"
     inkscape:pageshadow="2"
     inkscape:zoom="0.49"
     inkscape:cx="-337.97811"
     inkscape:cy="-26.801341"
     inkscape:document-units="px"
     inkscape:current-layer="layer3"
     showgrid="false"
     units="px"
     fit-margin-right="1"
     inkscape:window-width="1920"
     inkscape:window-height="1017"
     inkscape:window-x="-8"
     inkscape:window-y="-8"
     inkscape:window-maximized="1"
     showguides="true"
     inkscape:guide-bbox="true"
     inkscape:snap-text-baseline="true"
     fit-margin-top="1"
     fit-margin-bottom="1"
     fit-margin-left="1">
    <inkscape:grid
       type="xygrid"
       id="grid4183"
       originx="-7.2850736"
       originy="-97.806425" />
  </sodipodi:namedview>
  <metadata
     id="metadata7">
    <rdf:RDF>
      <cc:Work
         rdf:about="">
        <dc:format>image/svg+xml</dc:format>
        <dc:type
           rdf:resource="http://purl.org/dc/dcmitype/StillImage" />
        <dc:title></dc:title>
      </cc:Work>
    </rdf:RDF>
  </metadata>
  <g
     inkscape:groupmode="layer"
     id="layer2"
     inkscape:label="layers"
     style="display:inline"
     transform="translate(-7.2850736,-176.57933)" />
  <g
     inkscape:label="Calque 1"
     inkscape:groupmode="layer"
     id="layer1"
     transform="translate(-7.2850736,-228.94149)"
     style="display:inline">
    <g
       id="g4137"
       transform="matrix(1.7293533,0,0,1.9055016,0.44017,199.04147)"
       style="fill:#006bb6;fill-opacity:1;stroke:none;stroke-opacity:1">
      <g
         id="g4139"
         style="fill:#006bb6;fill-opacity:1;stroke:none;stroke-opacity:1">
        <g
           id="g4141"
           style="fill:#006bb6;fill-opacity:1;stroke:none;stroke-opacity:1">
          <g
             id="Layer_5_6_"
             style="fill:#006bb6;fill-opacity:1;stroke:none;stroke-opacity:1">
            <g
               id="g4144"
               style="fill:#006bb6;fill-opacity:1;stroke:none;stroke-opacity:1">
              <path
                 inkscape:connector-curvature="0"
                 d="m 213.30042,16.216216 c -76.851,0 -139.373997,62.522 -139.373997,139.372004 0,58.794 33.957997,119.799 62.444997,160.622 14.292,20.479 30.477,40.41 45.572,56.114 22.725,23.642 28.994,23.642 31.355,23.642 2.44,0 7.521,0 30.006,-23.671 15.253,-16.058 31.473,-35.962 45.672,-56.05 29.059,-41.106 63.693,-102.347 63.693,-160.657 0.003,-76.850004 -62.519,-139.372004 -139.369,-139.372004 z m 0,240.078004 c -54.037,0 -97.841,-43.805 -97.841,-97.84 0,-54.035 43.804,-97.840004 97.841,-97.840004 54.036,0 97.839,43.805004 97.839,97.840004 0,54.035 -43.803,97.84 -97.839,97.84 z"
                 id="path4148"
                 style="fill:#006bb6;fill-opacity:1;stroke:none;stroke-opacity:1" />
            </g>
          </g>
        </g>
      </g>
    </g>
    <g
       id="g4150"
       transform="translate(29.978611,120.36915)" />
    <g
       id="g4152"
       transform="translate(29.978611,120.36915)" />
    <g
       id="g4154"
       transform="translate(29.978611,120.36915)" />
    <g
       id="g4156"
       transform="translate(29.978611,120.36915)" />
    <g
       id="g4158"
       transform="translate(29.978611,120.36915)" />
    <g
       id="g4160"
       transform="translate(29.978611,120.36915)" />
    <g
       id="g4162"
       transform="translate(29.978611,120.36915)" />
    <g
       id="g4164"
       transform="translate(29.978611,120.36915)" />
    <g
       id="g4166"
       transform="translate(29.978611,120.36915)" />
    <g
       id="g4168"
       transform="translate(29.978611,120.36915)" />
    <g
       id="g4170"
       transform="translate(29.978611,120.36915)" />
    <g
       id="g4172"
       transform="translate(29.978611,120.36915)" />
    <g
       id="g4174"
       transform="translate(29.978611,120.36915)" />
    <g
       id="g4176"
       transform="translate(29.978611,120.36915)" />
    <g
       id="g4178"
       transform="translate(29.978611,120.36915)" />
    <g
       id="g4281"
       transform="matrix(22.592454,-2.1853495,18.778802,15.922344,137.24863,107.66636)" />
    <g
       id="g4283"
       transform="matrix(22.592454,-2.1853495,18.778802,15.922344,137.24863,107.66636)" />
    <g
       id="g4285"
       transform="matrix(22.592454,-2.1853495,18.778802,15.922344,137.24863,107.66636)" />
    <g
       id="g4287"
       transform="matrix(22.592454,-2.1853495,18.778802,15.922344,137.24863,107.66636)" />
    <g
       id="g4289"
       transform="matrix(22.592454,-2.1853495,18.778802,15.922344,137.24863,107.66636)" />
    <g
       id="g4291"
       transform="matrix(22.592454,-2.1853495,18.778802,15.922344,137.24863,107.66636)" />
    <g
       id="g4293"
       transform="matrix(22.592454,-2.1853495,18.778802,15.922344,137.24863,107.66636)" />
    <g
       id="g4295"
       transform="matrix(22.592454,-2.1853495,18.778802,15.922344,137.24863,107.66636)" />
    <g
       id="g4297"
       transform="matrix(22.592454,-2.1853495,18.778802,15.922344,137.24863,107.66636)" />
    <g
       id="g4299"
       transform="matrix(22.592454,-2.1853495,18.778802,15.922344,137.24863,107.66636)" />
    <g
       id="g4301"
       transform="matrix(22.592454,-2.1853495,18.778802,15.922344,137.24863,107.66636)" />
    <g
       id="g4303"
       transform="matrix(22.592454,-2.1853495,18.778802,15.922344,137.24863,107.66636)" />
    <g
       id="g4305"
       transform="matrix(22.592454,-2.1853495,18.778802,15.922344,137.24863,107.66636)" />
    <g
       id="g4307"
       transform="matrix(22.592454,-2.1853495,18.778802,15.922344,137.24863,107.66636)" />
    <g
       id="g4309"
       transform="matrix(22.592454,-2.1853495,18.778802,15.922344,137.24863,107.66636)" />
    <ellipse
       style="fill:#ffffff;fill-opacity:1;fill-rule:nonzero;stroke:none;stroke-width:1.82420325;stroke-miterlimit:3.0999999;stroke-dasharray:none;stroke-opacity:1"
       id="path4491"
       cx="369.06311"
       cy="504.27527"
       rx="187.70378"
       ry="207.35857" />
  </g>
  <g
     inkscape:groupmode="layer"
     id="layer3"
     inkscape:label="texte"
     transform="translate(-7.2850736,-176.57933)">
    <text
       xml:space="preserve"
       style="font-style:normal;font-variant:normal;font-weight:bold;font-stretch:normal;line-height:0%;font-family:'Berlin Sans FB Demi';-inkscape-font-specification:'Berlin Sans FB Demi, Bold';text-align:start;letter-spacing:0px;word-spacing:0px;writing-mode:lr-tb;text-anchor:start;display:inline;fill:#006bac;fill-opacity:1;stroke:none;stroke-width:1px;stroke-linecap:butt;stroke-linejoin:miter;stroke-opacity:1"
       x="256.25314"
       y="467.90405"
       id="text5965"
       transform="scale(0.91862768,1.0885803)"><tspan
         sodipodi:role="line"
         id="tspan5967"
         x="256.25314"
         y="467.90405"
         style="font-size:164.56251526px;line-height:1.25">IGO</tspan></text>
  </g>
</svg>
