<?xml version="1.0" encoding="UTF-8"?>
<svg xmlns="http://www.w3.org/2000/svg" width="26.631" height="26.631" viewBox="0 0 26.631 26.631">
  <g id="instagram-svgrepo-com_1_" data-name="instagram-svgrepo-com (1)" transform="translate(-1 -1)">
    <path id="Tracé_1179" data-name="Tracé 1179" d="M13.263,20.526A7.263,7.263,0,1,0,6,13.263,7.263,7.263,0,0,0,13.263,20.526Zm0-2.421a4.842,4.842,0,1,0-4.842-4.842A4.842,4.842,0,0,0,13.263,18.1Z" transform="translate(1.052 1.052)" fill="#fff" fill-rule="evenodd"></path>
    <path id="Tracé_1180" data-name="Tracé 1180" d="M18.21,5a1.21,1.21,0,1,0,1.21,1.21A1.21,1.21,0,0,0,18.21,5Z" transform="translate(3.368 0.842)" fill="#fff"></path>
    <path id="Tracé_1181" data-name="Tracé 1181" d="M1.792,4.966C1,6.519,1,8.553,1,12.621V16.01c0,4.068,0,6.1.792,7.655a7.263,7.263,0,0,0,3.174,3.174c1.554.792,3.587.792,7.655.792H16.01c4.068,0,6.1,0,7.655-.792a7.262,7.262,0,0,0,3.174-3.174c.792-1.554.792-3.587.792-7.655V12.621c0-4.068,0-6.1-.792-7.655a7.263,7.263,0,0,0-3.174-3.174C22.112,1,20.078,1,16.01,1H12.621c-4.068,0-6.1,0-7.655.792A7.263,7.263,0,0,0,1.792,4.966ZM16.01,3.421H12.621c-2.074,0-3.483,0-4.573.091a5.225,5.225,0,0,0-1.983.437A4.842,4.842,0,0,0,3.949,6.065a5.225,5.225,0,0,0-.437,1.983c-.089,1.09-.091,2.5-.091,4.573V16.01c0,2.074,0,3.483.091,4.573a5.226,5.226,0,0,0,.437,1.983,4.842,4.842,0,0,0,2.116,2.116,5.224,5.224,0,0,0,1.983.437c1.09.089,2.5.091,4.573.091H16.01c2.074,0,3.483,0,4.573-.091a5.224,5.224,0,0,0,1.983-.437,4.842,4.842,0,0,0,2.116-2.116,5.224,5.224,0,0,0,.437-1.983c.089-1.09.091-2.5.091-4.573V12.621c0-2.074,0-3.483-.091-4.573a5.224,5.224,0,0,0-.437-1.983,4.842,4.842,0,0,0-2.116-2.116,5.226,5.226,0,0,0-1.983-.437C19.494,3.423,18.084,3.421,16.01,3.421Z" fill="#fff" fill-rule="evenodd"></path>
  </g>
</svg>
